<svg xmlns="http://www.w3.org/2000/svg" width="256.789" height="57.658" viewBox="0 0 256.789 57.658">
  <g id="Group_8" data-name="Group 8" transform="translate(-88.769 -97.23)">
    <path id="Path_1" data-name="Path 1" d="M135.629,154.792l14.953.1-14.112-37.626-7.206-5.833,7.94,5.134,2.989,7.62,8.04-5.05,0-.96-2.822-1.043,2.861.437-.042-1.868-3.8-3.884-3.122-1.3,2.985.624-.152-3.484-5.935-5.069-4.457-5.356-10.174,9.591-.016-.013-6.237-.074-7.673,12.416,2.606-5.933-9.721.168L92.11,123.574,88.769,154.7l16.584.1-2.747-2.958-3.214,1.109,3.212-1.771,1.4-15.666-3.073-3.084,12.226,6.838,9.647-6.389-2.986-5.476L137,151.2l2.833,1.563-2.625-.906Z" transform="translate(0 0)" fill="#48c6fd"/>
    <g id="Group_1" data-name="Group 1" transform="translate(165.164 103.196)">
      <path id="Path_2" data-name="Path 2" d="M406.175,149.892a.934.934,0,0,1-.2.7,1.014,1.014,0,0,1-.68.18h-2.241a1.014,1.014,0,0,1-.68-.18.932.932,0,0,1-.2-.7V123.681a2.125,2.125,0,0,1,.18-1,.652.652,0,0,1,.62-.32,1.018,1.018,0,0,1,.64.26,8.368,8.368,0,0,1,.881.9l11.165,13.406,11-13.406q.639-.68.92-.92a.906.906,0,0,1,.6-.24.653.653,0,0,1,.62.32,2.124,2.124,0,0,1,.18,1v26.212a.933.933,0,0,1-.2.7,1.013,1.013,0,0,1-.68.18h-2.241a1.013,1.013,0,0,1-.68-.18.931.931,0,0,1-.2-.7V131.244l-8,9.844a5.515,5.515,0,0,1-.8.9.928.928,0,0,1-1.2,0,5.446,5.446,0,0,1-.8-.9l-8-9.844Z" transform="translate(-402.173 -122.2)" fill="#48c6fd"/>
      <path id="Path_3" data-name="Path 3" d="M530.929,149.076a2.474,2.474,0,0,1-.64.96,1.594,1.594,0,0,1-.96.24h-2.081q-.8,0-.8-.52a2.112,2.112,0,0,1,.2-.68L538.692,123.7a12.424,12.424,0,0,1,.88-1.621.825.825,0,0,1,.68-.38.748.748,0,0,1,.62.38,15.531,15.531,0,0,1,.86,1.621L553.9,149.076a2.131,2.131,0,0,1,.2.68q0,.52-.84.52h-2.241a1.5,1.5,0,0,1-.94-.24,2.977,2.977,0,0,1-.661-.96l-9.244-19.929Z" transform="translate(-496.154 -121.704)" fill="#48c6fd"/>
      <path id="Path_4" data-name="Path 4" d="M654.371,124.182a1.014,1.014,0,0,1,.68-.18h8.324a17.923,17.923,0,0,1,8.064,1.7,12.26,12.26,0,0,1,5.242,4.782,13.9,13.9,0,0,1,1.821,7.2,14.679,14.679,0,0,1-1.9,7.563,12.689,12.689,0,0,1-5.442,5,18.531,18.531,0,0,1-8.344,1.761h-7.763a1.014,1.014,0,0,1-.68-.18.932.932,0,0,1-.2-.7V124.882A.933.933,0,0,1,654.371,124.182Zm3.9,3.722a.471.471,0,0,0-.1.34v19.529a.469.469,0,0,0,.1.34.54.54,0,0,0,.38.1h4.242a13.968,13.968,0,0,0,6.183-1.26A8.909,8.909,0,0,0,673,143.37a10.855,10.855,0,0,0,1.341-5.522A10.233,10.233,0,0,0,673,132.566a8.907,8.907,0,0,0-3.882-3.521,13.7,13.7,0,0,0-6.062-1.241h-4.4A.543.543,0,0,0,658.273,127.9Z" transform="translate(-592.745 -123.442)" fill="#48c6fd"/>
      <path id="Path_5" data-name="Path 5" d="M779.784,151.834a1.014,1.014,0,0,1-.68.18h-2.241a1.015,1.015,0,0,1-.681-.18.933.933,0,0,1-.2-.7V124.882a.934.934,0,0,1,.2-.7,1.015,1.015,0,0,1,.681-.18H779.1a1.014,1.014,0,0,1,.68.18.936.936,0,0,1,.2.7v26.251A.934.934,0,0,1,779.784,151.834Z" transform="translate(-684.863 -123.442)" fill="#48c6fd"/>
      <path id="Path_6" data-name="Path 6" d="M812.045,144.166a1.188,1.188,0,0,1,.6.32,11.869,11.869,0,0,0,7.323,2.841,8.945,8.945,0,0,0,3.2-.52,4.613,4.613,0,0,0,2.1-1.5,3.651,3.651,0,0,0,.741-2.261,3.31,3.31,0,0,0-.6-2.041,4.7,4.7,0,0,0-1.941-1.381,27.777,27.777,0,0,0-3.782-1.221,22.2,22.2,0,0,1-4.742-1.681,7.476,7.476,0,0,1-2.882-2.5,6.851,6.851,0,0,1-1.02-3.862A7.617,7.617,0,0,1,812.285,126a7.991,7.991,0,0,1,3.381-2.821,11.453,11.453,0,0,1,4.822-.981,14.534,14.534,0,0,1,9.124,3.162,1.6,1.6,0,0,1,.3.3.512.512,0,0,1,.1.3.647.647,0,0,1-.08.28c-.054.107-.12.227-.2.36l-1.161,1.721a1.306,1.306,0,0,1-.3.34.508.508,0,0,1-.3.1,1.265,1.265,0,0,1-.68-.28,15.536,15.536,0,0,0-3.281-1.841,9.4,9.4,0,0,0-3.562-.68,6.87,6.87,0,0,0-2.7.5,4.18,4.18,0,0,0-1.841,1.441,3.767,3.767,0,0,0-.66,2.221,3.327,3.327,0,0,0,.66,2.121,4.886,4.886,0,0,0,1.961,1.4,23.923,23.923,0,0,0,3.542,1.121,23.7,23.7,0,0,1,4.982,1.8,7.206,7.206,0,0,1,2.841,2.5,6.845,6.845,0,0,1,.94,3.7,7.49,7.49,0,0,1-1.32,4.382,8.461,8.461,0,0,1-3.642,2.921,13.111,13.111,0,0,1-5.322,1.02,14.031,14.031,0,0,1-5.1-.92,16.478,16.478,0,0,1-4.382-2.521q-.441-.4-.44-.68a1.268,1.268,0,0,1,.28-.68l1.2-1.681Q811.764,144.166,812.045,144.166Z" transform="translate(-710.562 -122.076)" fill="#48c6fd"/>
      <path id="Path_7" data-name="Path 7" d="M909.707,129.339a13.828,13.828,0,0,1,5.2-5.243,15.321,15.321,0,0,1,14.746-.02,13.715,13.715,0,0,1,5.162,5.162,15.361,15.361,0,0,1-.02,14.767,13.68,13.68,0,0,1-5.222,5.2,14.836,14.836,0,0,1-7.443,1.881,14.472,14.472,0,0,1-7.3-1.861,13.593,13.593,0,0,1-5.142-5.142,14.455,14.455,0,0,1-1.881-7.323A14.744,14.744,0,0,1,909.707,129.339Zm3.6,12.806a9.737,9.737,0,0,0,3.681,3.782,10.124,10.124,0,0,0,5.182,1.361,10.226,10.226,0,0,0,5.222-1.381,10.053,10.053,0,0,0,3.762-3.822,10.863,10.863,0,0,0,1.38-5.443,11.04,11.04,0,0,0-1.361-5.5,9.851,9.851,0,0,0-3.721-3.782,10.241,10.241,0,0,0-5.2-1.361,10.116,10.116,0,0,0-5.2,1.381,9.945,9.945,0,0,0-3.722,3.822,11.148,11.148,0,0,0-1.361,5.523A11,11,0,0,0,913.309,142.145Z" transform="translate(-784.554 -122.076)" fill="#48c6fd"/>
      <path id="Path_8" data-name="Path 8" d="M1067.262,122.816a1.012,1.012,0,0,1,.68-.18h2.241a1.014,1.014,0,0,1,.68.18.936.936,0,0,1,.2.7v26.251q0,1.321-.8,1.321a1.182,1.182,0,0,1-.681-.26,7.168,7.168,0,0,1-1-.981l-16.247-19.168v19.088a.934.934,0,0,1-.2.7,1.013,1.013,0,0,1-.68.18h-2.241a1.014,1.014,0,0,1-.68-.18.932.932,0,0,1-.2-.7V123.517a1.939,1.939,0,0,1,.2-1,.7.7,0,0,1,.64-.32,1.182,1.182,0,0,1,.68.26,6.1,6.1,0,0,1,.96.981l16.247,19.168V123.517A.933.933,0,0,1,1067.262,122.816Z" transform="translate(-890.827 -122.076)" fill="#48c6fd"/>
    </g>
    <g id="Group_2" data-name="Group 2" transform="translate(164.184 137.143)">
      <path id="Path_9" data-name="Path 9" d="M406.783,263.14a.407.407,0,0,1-.272.072H403.5a.218.218,0,0,0-.152.04.188.188,0,0,0-.04.136v9.156a.374.374,0,0,1-.08.28.407.407,0,0,1-.272.072h-.9a.406.406,0,0,1-.272-.072.373.373,0,0,1-.08-.28v-9.156a.19.19,0,0,0-.04-.136.219.219,0,0,0-.152-.04h-3.009a.406.406,0,0,1-.272-.072.373.373,0,0,1-.08-.28v-.816a.374.374,0,0,1,.08-.28.407.407,0,0,1,.272-.072h8a.408.408,0,0,1,.272.072.375.375,0,0,1,.08.28v.816A.374.374,0,0,1,406.783,263.14Z" transform="translate(-398.155 -261.515)" fill="#b7b7b7"/>
      <path id="Path_10" data-name="Path 10" d="M469.66,271.447a.375.375,0,0,1,.08.28v.816a.374.374,0,0,1-.08.28.406.406,0,0,1-.272.072h-6.067a.405.405,0,0,1-.272-.072.372.372,0,0,1-.08-.28v-10.5a.373.373,0,0,1,.08-.28.407.407,0,0,1,.272-.072h6.051a.407.407,0,0,1,.272.072.374.374,0,0,1,.08.28v.816a.373.373,0,0,1-.08.28.406.406,0,0,1-.272.072h-4.61a.217.217,0,0,0-.152.04.189.189,0,0,0-.04.136v2.929a.156.156,0,0,0,.192.192h4.066a.408.408,0,0,1,.272.072.375.375,0,0,1,.08.28v.8a.3.3,0,0,1-.352.352h-4.066a.216.216,0,0,0-.152.04.188.188,0,0,0-.04.136V271.2a.188.188,0,0,0,.04.136.215.215,0,0,0,.152.04h4.626A.407.407,0,0,1,469.66,271.447Z" transform="translate(-447.17 -261.515)" fill="#b7b7b7"/>
      <path id="Path_11" data-name="Path 11" d="M528.619,269.853a.513.513,0,0,1,.272-.144.215.215,0,0,1,.128.048.576.576,0,0,1,.112.112l.464.64a.34.34,0,0,1,.08.224.248.248,0,0,1-.048.136.735.735,0,0,1-.144.152,6.29,6.29,0,0,1-1.913,1.113,6.411,6.411,0,0,1-2.233.392,5.744,5.744,0,0,1-2.873-.736,5.435,5.435,0,0,1-2.065-2.049,5.77,5.77,0,0,1-.76-2.945,5.889,5.889,0,0,1,.76-2.978,5.547,5.547,0,0,1,2.081-2.089,5.813,5.813,0,0,1,2.953-.76,6.126,6.126,0,0,1,2.2.4,6.425,6.425,0,0,1,1.865,1.089.307.307,0,0,1,.16.24.478.478,0,0,1-.1.256l-.464.624a.343.343,0,0,1-.256.176.536.536,0,0,1-.272-.128,5.854,5.854,0,0,0-1.489-.832,4.7,4.7,0,0,0-1.681-.3,4.051,4.051,0,0,0-2.073.544,3.94,3.94,0,0,0-1.481,1.521,4.459,4.459,0,0,0-.544,2.209,4.408,4.408,0,0,0,.536,2.161,3.937,3.937,0,0,0,1.473,1.529,4.036,4.036,0,0,0,2.089.552A4.94,4.94,0,0,0,528.619,269.853Z" transform="translate(-490.026 -260.969)" fill="#b7b7b7"/>
      <path id="Path_12" data-name="Path 12" d="M599.561,272.824a.405.405,0,0,1-.272.072h-.9a.407.407,0,0,1-.272-.072.373.373,0,0,1-.08-.28v-4.466a.188.188,0,0,0-.04-.136.216.216,0,0,0-.152-.04h-5.3a.216.216,0,0,0-.152.04.188.188,0,0,0-.04.136v4.466a.374.374,0,0,1-.08.28.407.407,0,0,1-.272.072h-.9a.4.4,0,0,1-.272-.072.372.372,0,0,1-.08-.28v-10.5a.373.373,0,0,1,.08-.28.406.406,0,0,1,.272-.072h.9a.408.408,0,0,1,.272.072.375.375,0,0,1,.08.28V266.2a.22.22,0,0,0,.04.144.191.191,0,0,0,.152.048h5.3a.192.192,0,0,0,.152-.048.222.222,0,0,0,.04-.144v-4.162a.374.374,0,0,1,.08-.28.408.408,0,0,1,.272-.072h.9a.407.407,0,0,1,.272.072.374.374,0,0,1,.08.28v10.5A.373.373,0,0,1,599.561,272.824Z" transform="translate(-543.809 -261.515)" fill="#b7b7b7"/>
      <path id="Path_13" data-name="Path 13" d="M668.657,261.217a.408.408,0,0,1,.272-.072h.9a.407.407,0,0,1,.272.072.374.374,0,0,1,.08.28V272q0,.528-.32.528a.472.472,0,0,1-.272-.1,2.859,2.859,0,0,1-.4-.392l-6.5-7.667V272a.374.374,0,0,1-.08.28.407.407,0,0,1-.272.072h-.9a.406.406,0,0,1-.272-.072.372.372,0,0,1-.08-.28V261.5a.774.774,0,0,1,.08-.4.279.279,0,0,1,.256-.128.472.472,0,0,1,.272.1,2.434,2.434,0,0,1,.384.392l6.5,7.667V261.5A.373.373,0,0,1,668.657,261.217Z" transform="translate(-596.994 -260.969)" fill="#b7b7b7"/>
      <path id="Path_14" data-name="Path 14" d="M730.272,263.826a5.531,5.531,0,0,1,2.081-2.1,6.129,6.129,0,0,1,5.9-.008,5.483,5.483,0,0,1,2.065,2.065,6.144,6.144,0,0,1-.008,5.907,5.474,5.474,0,0,1-2.089,2.081,5.936,5.936,0,0,1-2.977.752,5.789,5.789,0,0,1-2.921-.744,5.435,5.435,0,0,1-2.057-2.057,5.782,5.782,0,0,1-.752-2.929A5.9,5.9,0,0,1,730.272,263.826Zm1.441,5.122a3.893,3.893,0,0,0,1.473,1.513,4.049,4.049,0,0,0,2.073.544,4.091,4.091,0,0,0,2.089-.552,4.021,4.021,0,0,0,1.5-1.529,4.342,4.342,0,0,0,.552-2.177,4.418,4.418,0,0,0-.545-2.2,3.939,3.939,0,0,0-1.488-1.512,4.1,4.1,0,0,0-2.081-.544,4.045,4.045,0,0,0-2.081.552,3.98,3.98,0,0,0-1.489,1.529,4.459,4.459,0,0,0-.544,2.209A4.4,4.4,0,0,0,731.713,268.948Z" transform="translate(-648.741 -260.969)" fill="#b7b7b7"/>
      <path id="Path_15" data-name="Path 15" d="M809.691,271.335a.216.216,0,0,0,.152.04h4.722a.407.407,0,0,1,.272.072.374.374,0,0,1,.08.28v.816a.373.373,0,0,1-.08.28.406.406,0,0,1-.272.072H808.4a.405.405,0,0,1-.272-.072.372.372,0,0,1-.08-.28v-10.5a.373.373,0,0,1,.08-.28.407.407,0,0,1,.272-.072h.9a.408.408,0,0,1,.272.072.375.375,0,0,1,.08.28V271.2A.188.188,0,0,0,809.691,271.335Z" transform="translate(-708.135 -261.515)" fill="#b7b7b7"/>
      <path id="Path_16" data-name="Path 16" d="M864.627,263.826a5.533,5.533,0,0,1,2.081-2.1,6.129,6.129,0,0,1,5.9-.008,5.487,5.487,0,0,1,2.065,2.065,6.145,6.145,0,0,1-.008,5.907,5.473,5.473,0,0,1-2.089,2.081,5.936,5.936,0,0,1-2.977.752,5.787,5.787,0,0,1-2.921-.744,5.434,5.434,0,0,1-2.057-2.057,5.782,5.782,0,0,1-.752-2.929A5.9,5.9,0,0,1,864.627,263.826Zm1.441,5.122a3.894,3.894,0,0,0,1.473,1.513,4.051,4.051,0,0,0,2.073.544,4.093,4.093,0,0,0,2.089-.552,4.021,4.021,0,0,0,1.5-1.529,4.344,4.344,0,0,0,.552-2.177,4.416,4.416,0,0,0-.544-2.2,3.94,3.94,0,0,0-1.489-1.512,4.094,4.094,0,0,0-2.081-.544,4.046,4.046,0,0,0-2.081.552,3.977,3.977,0,0,0-1.489,1.529,4.457,4.457,0,0,0-.544,2.209A4.4,4.4,0,0,0,866.068,268.948Z" transform="translate(-750.346 -260.969)" fill="#b7b7b7"/>
      <path id="Path_17" data-name="Path 17" d="M949.723,271.357a.5.5,0,0,1-.232.176,8.747,8.747,0,0,1-4.162.993,5.821,5.821,0,0,1-2.849-.712,5.372,5.372,0,0,1-2.065-2.009,5.729,5.729,0,0,1-.768-2.977,5.943,5.943,0,0,1,.784-3.065,5.425,5.425,0,0,1,2.129-2.065,6.151,6.151,0,0,1,2.977-.728,6.61,6.61,0,0,1,2.177.36,6.86,6.86,0,0,1,1.809.92q.208.144.208.288a.605.605,0,0,1-.112.24l-.448.64a.315.315,0,0,1-.256.16.481.481,0,0,1-.256-.1,5.743,5.743,0,0,0-3.153-.993,4.338,4.338,0,0,0-2.177.544,3.784,3.784,0,0,0-1.489,1.521,4.567,4.567,0,0,0-.528,2.209,4.44,4.44,0,0,0,.552,2.225,3.88,3.88,0,0,0,1.489,1.5,4.144,4.144,0,0,0,2.073.528,6.119,6.119,0,0,0,2.529-.464.466.466,0,0,0,.184-.12.325.325,0,0,0,.04-.184V267.4a.374.374,0,0,1,.08-.28.406.406,0,0,1,.272-.072h.9a.406.406,0,0,1,.272.072.374.374,0,0,1,.08.28v3.666A.585.585,0,0,1,949.723,271.357Z" transform="translate(-807.654 -260.969)" fill="#b7b7b7"/>
      <path id="Path_18" data-name="Path 18" d="M1015.24,272.824a.406.406,0,0,1-.272.072h-.9a.4.4,0,0,1-.272-.072.372.372,0,0,1-.08-.28v-10.5a.373.373,0,0,1,.08-.28.406.406,0,0,1,.272-.072h.9a.408.408,0,0,1,.272.072.374.374,0,0,1,.08.28v10.5A.373.373,0,0,1,1015.24,272.824Z" transform="translate(-863.671 -261.515)" fill="#b7b7b7"/>
      <path id="Path_19" data-name="Path 19" d="M1060.862,271.447a.376.376,0,0,1,.08.28v.816a.375.375,0,0,1-.08.28.405.405,0,0,1-.272.072h-6.067a.405.405,0,0,1-.272-.072.373.373,0,0,1-.08-.28v-10.5a.374.374,0,0,1,.08-.28.407.407,0,0,1,.272-.072h6.051a.408.408,0,0,1,.272.072.375.375,0,0,1,.08.28v.816a.374.374,0,0,1-.08.28.406.406,0,0,1-.272.072h-4.61a.217.217,0,0,0-.152.04.189.189,0,0,0-.04.136v2.929a.156.156,0,0,0,.192.192h4.066a.407.407,0,0,1,.272.072.375.375,0,0,1,.08.28v.8a.3.3,0,0,1-.352.352h-4.066a.216.216,0,0,0-.152.04.189.189,0,0,0-.04.136V271.2a.188.188,0,0,0,.04.136.215.215,0,0,0,.152.04h4.626A.407.407,0,0,1,1060.862,271.447Z" transform="translate(-894.262 -261.515)" fill="#b7b7b7"/>
      <path id="Path_20" data-name="Path 20" d="M1109.9,269.757a.474.474,0,0,1,.24.128,4.749,4.749,0,0,0,2.929,1.136,3.575,3.575,0,0,0,1.281-.208,1.846,1.846,0,0,0,.841-.6,1.461,1.461,0,0,0,.3-.9,1.325,1.325,0,0,0-.24-.816,1.88,1.88,0,0,0-.777-.552,11.106,11.106,0,0,0-1.512-.488,8.879,8.879,0,0,1-1.9-.672,2.992,2.992,0,0,1-1.153-1,2.741,2.741,0,0,1-.408-1.545,3.047,3.047,0,0,1,.5-1.745,3.2,3.2,0,0,1,1.353-1.128,4.58,4.58,0,0,1,1.929-.392,5.815,5.815,0,0,1,3.65,1.264.648.648,0,0,1,.12.12.2.2,0,0,1,.04.12.259.259,0,0,1-.032.112c-.022.043-.048.091-.08.144l-.464.688a.527.527,0,0,1-.12.136.2.2,0,0,1-.12.04.508.508,0,0,1-.272-.112,6.217,6.217,0,0,0-1.313-.736,3.761,3.761,0,0,0-1.425-.272,2.749,2.749,0,0,0-1.081.2,1.671,1.671,0,0,0-.736.576,1.506,1.506,0,0,0-.264.889,1.33,1.33,0,0,0,.264.848,1.952,1.952,0,0,0,.784.56,9.576,9.576,0,0,0,1.417.448,9.5,9.5,0,0,1,1.993.72,2.886,2.886,0,0,1,1.136,1,2.739,2.739,0,0,1,.376,1.481,3,3,0,0,1-.528,1.753,3.385,3.385,0,0,1-1.457,1.168,5.242,5.242,0,0,1-2.129.408,5.612,5.612,0,0,1-2.041-.368,6.59,6.59,0,0,1-1.753-1.009q-.176-.16-.176-.272a.507.507,0,0,1,.112-.272l.48-.672C1109.746,269.816,1109.826,269.757,1109.9,269.757Z" transform="translate(-935.777 -260.969)" fill="#b7b7b7"/>
    </g>
  </g>
</svg>
